<?xml version="1.0" encoding="UTF-8"?>
<!DOCTYPE svg PUBLIC "-//W3C//DTD SVG 1.1//EN" "http://www.w3.org/Graphics/SVG/1.1/DTD/svg11.dtd">
<!-- Creator: CorelDRAW 2018 (64 Bit Versão de avaliação) -->
<svg xmlns="http://www.w3.org/2000/svg" xml:space="preserve" width="6.7732mm" height="6.7732mm" version="1.1" style="shape-rendering:geometricPrecision; text-rendering:geometricPrecision; image-rendering:optimizeQuality; fill-rule:evenodd; clip-rule:evenodd"
viewBox="0 0 677.32 677.32"
 xmlns:xlink="http://www.w3.org/1999/xlink">
 <defs>
  <style type="text/css">
   <![CDATA[
    .str2 {stroke:white;stroke-width:59.26;stroke-miterlimit:22.9256}
    .str0 {stroke:#ED3237;stroke-width:20;stroke-miterlimit:22.9256}
    .str1 {stroke:white;stroke-width:20;stroke-miterlimit:22.9256}
    .fil2 {fill:none}
    .fil0 {fill:#ED3237}
    .fil1 {fill:white}
   ]]>
  </style>
 </defs>
 <g id="Camada_x0020_1">
  <metadata id="CorelCorpID_0Corel-Layer"/>
  <g id="_1089447856">
   <path class="fil0 str0" d="M173.66 4.33l330 0c95.52,0 173.67,78.14 173.67,173.66l0 321.33c0,95.52 -78.15,173.66 -173.67,173.66l-330 0c-95.52,0 -173.67,-78.14 -173.67,-173.66l0 -321.33c0,-95.52 78.15,-173.66 173.67,-173.66z"/>
   <rect class="fil1 str1" x="318.22" y="157.98" width="38.1" height="228.6" rx="118.53" ry="118.53"/>
   <path class="fil2 str2" d="M418.79 239.91c45.82,26.22 76.5,74.25 76.5,129.15 0,83 -70.13,150.28 -156.63,150.28 -86.5,0 -156.63,-67.28 -156.63,-150.28 0,-56.36 30.75,-107.07 78.59,-132.78"/>
  </g>
 </g>
</svg>
