<?xml version="1.0" encoding="UTF-8"?>
<!DOCTYPE svg PUBLIC "-//W3C//DTD SVG 1.1//EN" "http://www.w3.org/Graphics/SVG/1.1/DTD/svg11.dtd">
<!-- Creator: CorelDRAW 2018 (64 Bit Versão de avaliação) -->
<svg xmlns="http://www.w3.org/2000/svg" xml:space="preserve" width="6.7732mm" height="6.7732mm" version="1.1" style="shape-rendering:geometricPrecision; text-rendering:geometricPrecision; image-rendering:optimizeQuality; fill-rule:evenodd; clip-rule:evenodd"
viewBox="0 0 677.32 677.32"
 xmlns:xlink="http://www.w3.org/1999/xlink">
 <defs>
  <style type="text/css">
   <![CDATA[
    .str2 {stroke:#FEFEFE;stroke-width:33.86;stroke-miterlimit:22.9256}
    .str0 {stroke:#F58634;stroke-width:20;stroke-miterlimit:22.9256}
    .str1 {stroke:#FEFEFE;stroke-width:20;stroke-miterlimit:22.9256}
    .fil2 {fill:none}
    .fil0 {fill:#F58634}
    .fil1 {fill:#FEFEFE}
   ]]>
  </style>
 </defs>
 <g id="Camada_x0020_1">
  <metadata id="CorelCorpID_0Corel-Layer"/>
  <path class="fil0 str0" d="M173.66 4.33l330 0c95.52,0 173.67,78.14 173.67,173.66l0 321.33c0,95.52 -78.15,173.66 -173.67,173.66l-330 0c-95.52,0 -173.67,-78.14 -173.67,-173.66l0 -321.33c0,-95.52 78.15,-173.66 173.67,-173.66z"/>
  <g id="_1087196064">
   <polygon class="fil1 str1" points="187.77,290.89 348.42,290.89 348.42,386.42 187.77,386.42 "/>
   <polygon class="fil1 str1" points="348.42,208.4 313.68,238.79 274.6,277.86 348.42,277.86 "/>
   <polygon class="fil1 str1" points="348.42,399.45 274.6,399.45 311.51,434.19 348.42,468.91 "/>
  </g>
  <path class="fil2 str2" d="M435.26 464.58c29.98,0 54.28,-56.39 54.28,-125.92 0,-69.54 -24.3,-125.93 -54.28,-125.93"/>
  <path class="fil2 str2" d="M391.84 408.12c19.18,0 34.74,-31.1 34.74,-69.46 0,-38.37 -15.56,-69.47 -34.74,-69.47"/>
 </g>
</svg>
